<svg xmlns="http://www.w3.org/2000/svg" role="img" class="rv-xy-plot__inner" width="500" height="500"><g class="rv-xy-plot__series rv-xy-plot__series--arc " opacity="1" pointer-events="all" transform="translate(250,250)"><path class="rv-xy-plot__series rv-xy-plot__series--arc-path  " d="M24.990538531210323,-42.886379877082355A49.63636363636363,49.63636363636363,0,1,1,-49.63636363636363,6.07870138485868e-15L-44.9090909090909,5.499777443443567e-15A44.9090909090909,44.9090909090909,0,1,0,22.61048724252362,-38.80196274593165Z" style="opacity: 1; stroke: rgba(186, 186, 186, 0.72); fill: rgba(186, 186, 186, 0.72);"></path><path class="rv-xy-plot__series rv-xy-plot__series--arc-path  " d="M78.28963476674427,-33.334605112512484A85.0909090909091,85.0909090909091,0,1,1,-85.0909090909091,1.0420630945472023e-14L-80.36363636363636,9.84170700405691e-15A80.36363636363636,80.36363636363636,0,1,0,73.94021061303624,-31.482682606261786Z" style="opacity: 1; stroke: rgba(186, 186, 186, 0.72); fill: rgba(186, 186, 186, 0.72);"></path><path class="rv-xy-plot__series rv-xy-plot__series--arc-path  " d="M-120.54545454545455,1.4762560506085366e-14L-115.81818181818181,1.4183636564670253e-14Z" style="opacity: 1; stroke: rgba(186, 186, 186, 0.72); fill: rgba(186, 186, 186, 0.72);"></path><path class="rv-xy-plot__series rv-xy-plot__series--arc-path  " d="M3.618274633844452e-15,-59.090909090909086A59.090909090909086,59.090909090909086,0,0,1,29.750641108583718,-51.05521413938375L17.85038466515023,-30.63312848363025A35.45454545454545,35.45454545454545,0,0,0,2.1709647803066717e-15,-35.45454545454545Z" style="opacity: 1; stroke: rgb(255, 198, 166); fill: rgb(255, 198, 166);"></path><path class="rv-xy-plot__series rv-xy-plot__series--arc-path  " d="M5.7892394141511244e-15,-94.54545454545455A94.54545454545455,94.54545454545455,0,0,1,86.9884830741603,-37.03845012501387L65.24136230562023,-27.778837593760407A70.90909090909092,70.90909090909092,0,0,0,4.341929560613344e-15,-70.90909090909092Z" style="opacity: 1; stroke: rgb(148, 148, 148); fill: rgb(148, 148, 148);"></path><path class="rv-xy-plot__series rv-xy-plot__series--arc-path  " d="M7.960204194457796e-15,-130A130,130,0,1,1,-130,1.592040838891559e-14L-106.36363636363637,1.302578868184003e-14A106.36363636363637,106.36363636363637,0,1,0,6.512894340920015e-15,-106.36363636363637Z" style="opacity: 1; stroke: rgb(253, 148, 89); fill: rgb(253, 148, 89);"></path></g><g class="rv-xy-plot__series rv-xy-plot__series--label " transform="translate(120,0)" style="font-family: Helvetica; font-weight: normal; font-size: 22px;"><text dominant-baseline="text-after-edge" class="rv-xy-plot__series--label-text" text-anchor="end" x="125" y="215" transform="rotate(0,125,215)">Internt fordrevne</text></g><g class="rv-xy-plot__series rv-xy-plot__series--label " transform="translate(120,0)" style="font-family: Helvetica; font-weight: normal; font-size: 22px;"><text dominant-baseline="text-after-edge" class="rv-xy-plot__series--label-text" text-anchor="end" x="125" y="180" transform="rotate(0,125,180)">Flyktninger til</text></g><g class="rv-xy-plot__series rv-xy-plot__series--label " transform="translate(120,0)" style="font-family: Helvetica; font-weight: bold; font-size: 22px;"><text dominant-baseline="text-after-edge" class="rv-xy-plot__series--label-text" text-anchor="end" x="125" y="145" transform="rotate(0,125,145)">Flyktninger fra</text></g><g class="rv-xy-plot__series rv-xy-plot__series--label " transform="translate(120,0)" style="font-family: Helvetica; font-weight: bold; font-size: 22px;"><text dominant-baseline="text-after-edge" class="rv-xy-plot__series--label-text" text-anchor="end" x="-8" y="271" transform="rotate(0,-8,271)">52.696</text></g></svg>