<svg xmlns="http://www.w3.org/2000/svg" role="img" class="rv-xy-plot__inner" width="500" height="500"><g class="rv-xy-plot__series rv-xy-plot__series--arc " opacity="1" pointer-events="all" transform="translate(250,250)"><path class="rv-xy-plot__series rv-xy-plot__series--arc-path  " d="M7.239843528715269,-49.10553187494299A49.63636363636363,49.63636363636363,0,1,1,-49.63636363636363,6.07870138485868e-15L-44.9090909090909,5.499777443443567e-15A44.9090909090909,44.9090909090909,0,1,0,6.550334621218576,-44.42881455351984Z" style="opacity: 1; stroke: rgba(186, 186, 186, 0.72); fill: rgba(186, 186, 186, 0.72);"></path><path class="rv-xy-plot__series rv-xy-plot__series--arc-path  " d="M20.764271183820032,-82.51853035604874A85.0909090909091,85.0909090909091,0,1,1,-85.0909090909091,1.0420630945472023e-14L-80.36363636363636,9.84170700405691e-15A80.36363636363636,80.36363636363636,0,1,0,19.610700562496696,-77.93416755849047Z" style="opacity: 1; stroke: rgba(186, 186, 186, 0.72); fill: rgba(186, 186, 186, 0.72);"></path><path class="rv-xy-plot__series rv-xy-plot__series--arc-path  " d="M-120.54545454545455,1.4762560506085366e-14L-115.81818181818181,1.4183636564670253e-14Z" style="opacity: 1; stroke: rgba(186, 186, 186, 0.72); fill: rgba(186, 186, 186, 0.72);"></path><path class="rv-xy-plot__series rv-xy-plot__series--arc-path  " d="M3.618274633844452e-15,-59.090909090909086A59.090909090909086,59.090909090909086,0,0,1,8.618861343708653,-58.45896651778927L5.171316806225192,-35.07537991067356A35.45454545454545,35.45454545454545,0,0,0,2.1709647803066717e-15,-35.45454545454545Z" style="opacity: 1; stroke: rgba(253, 148, 89, 1); fill: rgba(253, 148, 89, 1);"></path><path class="rv-xy-plot__series rv-xy-plot__series--arc-path  " d="M5.7892394141511244e-15,-94.54545454545455A94.54545454545455,94.54545454545455,0,0,1,23.071412426466704,-91.68725595116527L17.30355931985003,-68.76544196337396A70.90909090909092,70.90909090909092,0,0,0,4.341929560613344e-15,-70.90909090909092Z" style="opacity: 1; stroke: rgba(102, 102, 102, 0.65); fill: rgba(102, 102, 102, 0.65);"></path><path class="rv-xy-plot__series rv-xy-plot__series--arc-path  " d="M7.960204194457796e-15,-130A130,130,0,1,1,-130,1.592040838891559e-14L-106.36363636363637,1.302578868184003e-14A106.36363636363637,106.36363636363637,0,1,0,6.512894340920015e-15,-106.36363636363637Z" style="opacity: 1; stroke: rgba(255, 198, 166, 1); fill: rgba(255, 198, 166, 1);"></path></g><g class="rv-xy-plot__series rv-xy-plot__series--label " transform="translate(120,0)" style="font-family: Helvetica; font-weight: normal; font-size: 22px;"><text dominant-baseline="text-after-edge" class="rv-xy-plot__series--label-text" text-anchor="end" x="125" y="215" transform="rotate(0,125,215)">Flyktninger fra</text></g><g class="rv-xy-plot__series rv-xy-plot__series--label " transform="translate(120,0)" style="font-family: Helvetica; font-weight: normal; font-size: 22px;"><text dominant-baseline="text-after-edge" class="rv-xy-plot__series--label-text" text-anchor="end" x="125" y="180" transform="rotate(0,125,180)">Internt fordrevne</text></g><g class="rv-xy-plot__series rv-xy-plot__series--label " transform="translate(120,0)" style="font-family: Helvetica; font-weight: bold; font-size: 22px;"><text dominant-baseline="text-after-edge" class="rv-xy-plot__series--label-text" text-anchor="end" x="125" y="145" transform="rotate(0,125,145)">Flyktninger til</text></g><g class="rv-xy-plot__series rv-xy-plot__series--label " transform="translate(120,0)" style="font-family: Helvetica; font-weight: bold; font-size: 22px;"><text dominant-baseline="text-after-edge" class="rv-xy-plot__series--label-text" text-anchor="end" x="-8" y="271" transform="rotate(0,-8,271)">573.484</text></g></svg>