<?xml version="1.0" encoding="utf-8"?>
<!DOCTYPE svg PUBLIC "-//W3C//DTD SVG 1.1//EN" "http://www.w3.org/Graphics/SVG/1.1/DTD/svg11.dtd">
<!-- Generator: Adobe Illustrator 19.2.1, SVG Export Plug-In . SVG Version: 6.00 Build 0)  -->
<svg version="1.1" id="Layer_1" xmlns="http://www.w3.org/2000/svg" xmlns:xlink="http://www.w3.org/1999/xlink"
	 viewBox="380 260 200 50" enable-background="new 0 0 960 560" xml:space="preserve">
<g>
	<rect x="376.4" y="177" fill="#FF7602" width="207.2" height="207.2"/>
	<g>
		<path fill="#FFFFFF" d="M438.7,338.2l-23.2-43l0.4,43h-15.2v-72.1h15.2l23.3,43l-0.4-43h15.2v72.1H438.7z"/>
		<path fill="#FFFFFF" d="M477.4,338.2H462v-72.1h24.5c19.4,0,26.1,8.8,25.7,22.6c-0.3,12.3-4.9,15.8-12.5,19.4l17.6,30.1h-18
			l-14.6-27h-7.5V338.2z M477.4,297.3h10.5c6.8,0,7.7-4.6,7.7-8.5c0-4-0.9-8.6-7.7-8.6h-10.5V297.3z"/>
		<path fill="#FFFFFF" d="M547.9,264.8c8.4,0,12.1,1.5,15,2.7V282c-4.3-1.7-7.7-2.8-13.5-2.8c-11.7,0-17.1,4.7-17.1,23
			c0,18.3,5.4,23,17.1,23c5.8,0,9.1-1.1,13.5-2.8v14.5c-2.9,1.2-6.6,2.7-15,2.7c-21,0-31-10.3-31.1-37.4
			C516.9,275.1,526.9,264.8,547.9,264.8z"/>
	</g>
</g>
</svg>
