<?xml version="1.0" encoding="utf-8"?>
<!-- Generator: Adobe Illustrator 19.2.1, SVG Export Plug-In . SVG Version: 6.00 Build 0)  -->
<svg version="1.1" id="Layer_1" xmlns="http://www.w3.org/2000/svg" xmlns:xlink="http://www.w3.org/1999/xlink" x="0px" y="0px"
	 viewBox="380 260 200 50" enable-background="new 0 0 960 560" xml:space="preserve">
<rect x="367.1" y="168.2" fill="#67CDF5" width="226.6" height="226.4"/>
<polygon fill="#FFFFFF" points="433.1,288.8 411.7,249.2 412.1,288.8 398.1,288.8 398.1,222.5 412.1,222.5 433.5,262.1 433.1,222.5 
	447.1,222.5 447.1,288.8 "/>
<path fill="#FFFFFF" d="M456.4,255.6c0-20.3,5.6-34.4,26.5-34.4c20.9,0,26.5,14.2,26.5,34.4c0,20.3-5.6,34.4-26.5,34.4
	C461.9,290,456.4,275.9,456.4,255.6 M470.7,255.6c0,15.5,3.4,21.6,12.1,21.6c8.8,0,12.1-6.1,12.1-21.6s-3.3-21.6-12.1-21.6
	C474.1,234.1,470.7,240.2,470.7,255.6"/>
<path fill="#FFFFFF" d="M532.3,288.8h-14.2v-66.3h22.6c17.9,0,23.7,8.1,23.7,20.8c0,8.2-2.3,14.5-9.3,17.9l11.8,27.7h-16.6
	l-8.9-24.9h-9.1V288.8z M532.3,251.1h9.6c6.3,0,7.1-4.2,7.1-7.9c0-3.7-0.8-7.9-7.1-7.9h-9.6V251.1z"/>
<path fill="#FFFFFF" d="M425.7,299.1c7.7,0,20.6,1.4,20.1,2.5v13.4c-0.8-1.6-13.3-2.6-18.7-2.6c-10.8,0-15.8,4.3-15.8,21.1
	c0,16.8,5.1,20.7,15.9,20.7c5.3,0,17.5-0.9,18.1-1.1l-5.1,13.6c-2.7,0.8-6.8,1.2-14.5,1.2c-19.4,0-28.6-9.5-28.7-34.4
	C397.1,308.5,406.3,299.1,425.7,299.1"/>
<path fill="#FFFFFF" d="M532.7,366.7h-14.2v-66.4H541c17.7,0,22.7,10.4,22.7,21.7c0,11.5-5,21.7-22.7,21.7h-8.3V366.7z M532.7,330.9
	h8.4c7.1,0,8.4-5.4,8.4-8.8c0-3.5-1.3-8.8-8.4-8.8h-8.4V330.9z"/>
<path fill="#FFFFFF" d="M451.1,366.7l21.6-66.7H489l21.6,66.7h-14.3l-3.9-13.6h-23.2l-3.9,13.6H451.1z M473,341.8h15.8l-7.9-25.9
	L473,341.8z"/>
</svg>
