<svg xmlns="http://www.w3.org/2000/svg" xmlns:xlink="http://www.w3.org/1999/xlink" version="1.1" x="0px" y="0px" viewBox="0 10 110 75" style="enable-background:new 0 0 100 100;" xml:space="preserve">
    <path d="M78.8,40.9C78.8,25,65.9,12.1,50,12.1S21.2,25,21.2,40.9c0,6.5,2.2,12.5,5.8,17.3c0,0,0.1,0.1,0.1,0.1c0,0,0,0,0,0  l19.1,26.4c1.8,2.5,5.8,2.5,7.6,0l19.1-26.4c0,0,0-0.1,0.1-0.1c0,0,0.1-0.1,0.1-0.1C76.6,53.3,78.8,47.4,78.8,40.9z M25.6,40.9  c0-13.5,10.9-24.4,24.4-24.4c13.5,0,24.4,10.9,24.4,24.4c0,13.5-10.9,24.4-24.4,24.4C36.5,65.3,25.6,54.4,25.6,40.9z"/>
</svg>