<svg id="Layer_1" data-name="Layer 1" xmlns="http://www.w3.org/2000/svg" viewBox="0 0 1100 1100"><defs><style>.cls-1{fill:#56565a;}.cls-2{fill:#fff;}</style></defs><title>Artboard 1</title><circle class="cls-1" cx="550" cy="550.24" r="549.76" transform="translate(-2.11 1098.37) rotate(-89.81)"/><path class="cls-2" d="M772.39,638.24c12.16,23.68,66,149.29,66,167.26,0,98.7-131.31,98.7-131.31,0C707.06,787.53,760.88,656.22,772.39,638.24Z"/><path class="cls-2" d="M850.54,571.62V495.41c0-48-43.59-89.66-101.82-89.66H613.52l-.65-42.3a21.55,21.55,0,0,0-21.74-21.74H538V314c4.52-2.58,8.29-6.46,11.52-10.23h112.8c7.53,9.58,18.51,16.58,32,16.58a40.93,40.93,0,0,0,41-41,41.35,41.35,0,0,0-41-41c-13.45,0-25,7-32.08,17.33H550.67C543,245.48,532,238.38,517.94,238.38c-13.45,0-25,7-32.08,17.33H362.2c-7.53-10.23-18.51-17.22-32-17.22a41,41,0,1,0,0,81.91,38.25,38.25,0,0,0,31.43-16.68H486a34.71,34.71,0,0,0,11.52,10.23v26.91h-56.4a21.55,21.55,0,0,0-21.74,21.74v42.3H254.67V536.2H438c18,35.84,41.65,53.82,77.5,53.82s66-18,84-53.82h66c19.91,0,26.91,12.81,28.85,37.13a21.19,21.19,0,0,0-9.58,18,21.55,21.55,0,0,0,21.74,21.74H842.89a21.55,21.55,0,0,0,21.74-21.74C864.64,582.49,858.82,574.84,850.54,571.62Z"/></svg>