<svg id="Layer_1" data-name="Layer 1" xmlns="http://www.w3.org/2000/svg" viewBox="0 0 1100 1100"><defs><style>.cls-1{fill:#56565a;}.cls-2{fill:#fff;}</style></defs><title>Artboard 1</title><circle class="cls-1" cx="550" cy="550.24" r="549.76" transform="translate(-2.11 1098.37) rotate(-89.81)"/><path class="cls-2" d="M446.63,489.59c0,18.4-15.5,33.8-33.8,33.8s-33.8-15.5-33.8-33.8,15.5-33.8,33.8-33.8A33.76,33.76,0,0,1,446.63,489.59Z"/><path class="cls-2" d="M416.43,721.38l7.4,125.1a8.1,8.1,0,0,0,16.2,0l6.6-125.1h22.1l-22.8-140.5,46.4,92c1.5,4.4,6.6,5.9,10.3,4.4s5.9-6.6,4.4-10.3c0,0-33.8-91.2-41.9-108.2s-16.2-27.2-47.8-27.2h-6.6c-31.6,0-39.7,10.3-47.8,27.2S321,667,321,667c-1.5,3.7,0,8.8,4.4,10.3s8.8,0,10.3-4.4l46.4-92L359,721.38h22.1l6.6,125.1a8.1,8.1,0,0,0,16.2,0l6.6-125.1Z"/><path class="cls-2" d="M686.53,455a33.76,33.76,0,0,0-33.8,33.8c0,18.3,15.5,33.8,33.8,33.8s33.8-15.5,33.8-33.8A33.76,33.76,0,0,0,686.53,455Z"/><path class="cls-2" d="M721.82,655.09l2.2-73.6,41.2,92c1.5,4.4,6.6,5.9,10.3,4.4s5.9-6.6,4.4-10.3c0,0-29.4-91.2-37.5-108.2s-21.3-27.2-53-27.2h-6.6c-31.6,0-44.9,10.3-53,27.2s-37.5,108.2-37.5,108.2c-1.5,4.4,0,8.8,4.4,10.3,3.7,1.5,8.8,0,10.3-4.4l41.2-92,2.2,73.6-6.6,185.39a12.82,12.82,0,0,0,12.5,14h.7c7.4,0,12.5-5.2,13.2-12.5L685,698.59,700.52,842c.7,6.6,6.6,12.5,13.2,12.5h.7a13.63,13.63,0,0,0,12.5-14l-5.1-185.39Z"/><path class="cls-2" d="M549.63,661a20.6,20.6,0,1,0,20.6,20.6A20.57,20.57,0,0,0,549.63,661Z"/><path class="cls-2" d="M549.63,783.88l9.6,64.8a9.19,9.19,0,0,0,8.1,5.2c3.7,0,6.6-2.2,8.1-5.9v-4.4l-3.7-80.2,1.5-27.2c.7-9.6,1.5-6.6,11.8-13.2,11-6.6,29.4-35.3,30.2-36.8s2.9-3.7,2.9-5.9a4.77,4.77,0,0,0-4.4-5.9c-2.2-.7-3.7.7-5.2,2.2s-22.8,29.4-38.3,32.4c-3.7-.7-7.4-2.2-17.7-2.2h-3.7c-10.3,0-14,1.5-17.7,2.2-16.2-2.9-36.8-30.9-38.3-32.4s-2.9-2.9-5.2-2.2c-2.9.7-4.4,2.9-4.4,5.9,0,1.5,2.2,4.4,2.9,5.9s19.1,30.2,30.2,36.8c10.3,6.6,11,3.7,11.8,13.2l1.5,27.2-3.7,80.2V848c1.5,3.7,4.4,5.9,8.1,5.9a9,9,0,0,0,8.1-5.2c-2.1,0,7.5-64.8,7.5-64.8"/><path class="cls-2" d="M911.62,528.59a32.09,32.09,0,0,0-8.1-44.9l-300.19-209c-30.9-21.3-77.3-21.3-108.2,0l-300.19,209a32.26,32.26,0,0,0,36.8,53l300.19-209c8.1-5.9,25.8-5.9,33.8,0l300.19,209c5.9,3.7,12.5,5.9,18.4,5.9C895.42,542.59,905.72,537.39,911.62,528.59Z"/></svg>