<svg id="Layer_1" data-name="Layer 1" xmlns="http://www.w3.org/2000/svg" viewBox="0 0 1100 1100"><defs><style>.cls-1{fill:#56565a;}.cls-2{fill:#fff;}</style></defs><title>Artboard 1</title><circle class="cls-1" cx="550" cy="550.24" r="549.76" transform="translate(-2.11 1098.37) rotate(-89.81)"/><path class="cls-2" d="M850.76,581.13h0c-2,48.82-18.47,101.6-43.55,150.43,0,0-60.7,123.38-251.37,123.38S303.15,732.88,303.15,732.88c-25.73-48.82-40.91-101.6-42.89-151.09h0v-4c0-23.09,14.52-45.52,39.59-64L326.24,531c-16.49,11.22-25.73,23.09-25.73,36.29,0,46.18,114.14,83.79,255.33,83.79s255.33-37.61,255.33-83.79c0-31.67-54.76-59.38-135.25-73.89l.66-33.65c102.92,20.45,174.84,65.32,174.84,118.1C850.76,578.49,850.76,579.81,850.76,581.13Z"/><path class="cls-2" d="M357.91,382.54c-1.32,7.92-2,20.45,7.26,37.61,11.88,20.45,27.05,27.71,32.33,31-.66-5.28.66-21.11-10.56-40.91-9.9-17.15-20.45-25.07-26.39-31-17.81-25.73-37.61-46.18-52.78-62l-36.29-37.61s13.2,15.17,35,38.93C321,335.7,340.76,356.81,357.91,382.54Z"/><path class="cls-2" d="M448.3,581.13c7.92,7.26,17.81,19.13,39.59,31C512.3,626,532.75,626,540,627.32c-4-6.6-11.88-26.39-38.93-41.57-21.77-11.88-38.93-9.9-48.82-7.92-33-19.13-62-38.93-85.11-53.44C334.16,503.94,313,494,313,494s20.45,11.22,52.78,33C387.6,541.55,415.31,561.34,448.3,581.13Z"/><path class="cls-2" d="M468.09,474.91c-2.64,9.24-6.6,23.75,2,44.86,9.9,26.39,27.05,36.95,32.33,42.23,0-6.6,4.62-24.41-5.28-48.82-8.58-21.77-19.79-33-25.73-40.91-16.49-33-36.29-60-52.12-81.15l-36.95-49.48,35,50.8C432.47,414.21,451.6,441.92,468.09,474.91Z"/><path class="cls-2" d="M406.07,528.35c7.26,6.6,16.49,17.81,36.95,28.37,23.09,11.88,42.23,11.88,48.82,13.2-4-5.94-11.88-24.41-36.95-37.61-20.45-10.56-36.29-8.58-45.52-6.6-31.67-17.15-58.06-35.63-79.83-48.16-31-18.47-50.8-27.71-50.8-27.71s19.13,10.56,49.48,29.69C348.67,492.06,375.07,510.54,406.07,528.35Z"/><path class="cls-2" d="M361.87,476.23c6.6,5.94,15.83,15.83,35,25.73,21.77,10.56,38.93,9.9,45.52,11.22-3.3-5.28-11.22-21.77-35-33.65-19.13-9.9-33.65-7.26-42.23-5.28-29-15.83-54.76-32.33-74.55-43.55-29-16.49-47.5-25.07-47.5-25.07s18.47,9.24,46.18,27.05C308.43,443.24,332.84,459.73,361.87,476.23Z"/><path class="cls-2" d="M316.35,399.69c13.2,11.88,25.07,12.54,32.33,14.52-1.32-5.94,0-19.79-15.17-33a48.41,48.41,0,0,0-31.67-11.88,976.09,976.09,0,0,0-108.2-79.83L191,288.19c-.66.66,50.14,33.65,109.52,85.77C302.49,380.56,305.79,391.12,316.35,399.69Z"/><path class="cls-2" d="M315.69,424.77c6.6,5.28,14.52,14.52,32.33,23.09,19.79,9.9,36.29,8.58,41.57,9.9-3.3-4.62-10.56-19.79-32.33-30.35-17.81-8.58-31-6.6-38.93-4.62-27.05-13.86-50.14-29-69.28-39.59-26.39-15.17-44.2-23.09-44.2-23.09s17.15,8.58,42.89,24.41C266.2,395.08,288.64,410.25,315.69,424.77Z"/><path class="cls-2" d="M414,427.41c-2,8.58-4.62,21.77,4.62,40.91,11.22,23.75,27.71,32.33,32.33,36.29-.66-5.94,2.64-23.09-7.92-44.86-9.24-19.79-19.79-29-26.39-35.63-17.15-29-36.95-52.78-52.78-71.26L326.9,309.31l35,44.86C377.7,373.3,397.5,397.72,414,427.41Z"/><path class="cls-2" d="M618.52,476.89c-5.94,5.94-15.17,15.17-17.81,35-4,23.75,4,39.59,5.94,44.86,2.64-4.62,13.86-16.49,17.81-39.59,3.3-20.45-.66-33-2-41.57,1.32-31.67-2-60.7-4.62-83.13-4-33-6.6-52.78-6.6-52.78l4.62,53.44C617.86,416.19,620.5,445.22,618.52,476.89Z"/><path class="cls-2" d="M599.39,423.45c-5.28,5.94-13.2,15.17-14.52,33.65-2,22.43,6.6,36.29,8.58,41.57,2-4.62,11.88-16.49,13.86-37.61,1.32-19.13-2.64-30.35-4.62-38.27-.66-29.69-5.28-56.08-9.24-76.53l-9.24-48.82,7.26,48.82C595.43,366.71,600,393.76,599.39,423.45Z"/><path class="cls-2" d="M577.62,370.66c-4.62,5.28-11.22,14.52-11.22,31.67,0,21.11,8.58,33,10.56,37.61,2-4.62,9.9-15.83,9.9-35.63,0-17.15-4-27.71-6.6-35-2-27.05-7.92-50.8-12.54-69.94L556.5,255.2l9.24,44.2C570.36,318.54,576.3,343,577.62,370.66Z"/><path class="cls-2" d="M615.88,617.42c3.3-4.62,16.49-16.49,21.77-40.91,4.62-21.11,2-35.63.66-44.86,4-33.65,2-65.32.66-89.73-2-35.63-4-57.4-4-57.4l2,57.4c.66,24.41,2,56.74-2.64,90.39-6.6,5.94-17.15,15.17-21.77,36.29C607.31,593.67,614.56,610.82,615.88,617.42Z"/><path class="cls-2" d="M507.68,335.7c2.64,5.94,5.28,15.83,15.17,27.71,10.56,13.86,23.09,18.47,26.39,21.11-.66-4.62-.66-17.81-12.54-33-9.9-12.54-19.79-15.17-26.39-16.49-14.52-19.13-26.39-38.27-35.63-52.12-13.86-20.45-23.75-31.67-23.75-31.67s9.24,11.88,22.43,32.33C482.61,297.43,493.16,316.56,507.68,335.7Z"/><path class="cls-2" d="M516.92,317.88c5.28,12.54,13.86,17.15,18.47,21.11.66-4.62,6.6-14.52.66-29a39,39,0,0,0-18.47-19.13,744.61,744.61,0,0,0-50.14-94.35l-1.32-2c-.66,0,24.41,41.57,48.82,99.63A34.52,34.52,0,0,0,516.92,317.88Z"/><path class="cls-2" d="M538.69,418.83c11.88,15.17,25.07,20.45,29,23.09-.66-5.28,0-19.79-13.2-36.29-10.56-13.2-21.77-16.49-28.37-17.81-15.83-21.11-28.37-41.57-38.27-56.74-15.17-21.77-25.07-34.31-25.07-34.31s9.9,13.2,23.75,35c9.9,15.17,21.11,35.63,36.29,56.74C525.49,395.08,528.13,405.63,538.69,418.83Z"/><path class="cls-2" d="M553.2,318.54a48.52,48.52,0,0,0-7.92,29.69c1.32,19.13,9.9,29.69,11.88,33.65,1.32-4,7.92-15.17,6.6-33-.66-15.83-5.94-25.07-7.92-31.67-4-24.41-11.22-46.18-15.83-62.68L527.47,215s4,15.17,11.22,40.25C542.65,272.36,549.91,294.13,553.2,318.54Z"/><path class="cls-2" d="M536.05,441.92c2.64,7.26,5.94,18.47,16.49,33,12.54,16.49,26.39,22.43,30.35,25.73-.66-5.28,0-21.77-13.2-39.59-11.22-14.52-23.09-18.47-30.35-19.79-16.49-23.09-29.69-45.52-40.25-62-15.83-23.75-27.05-37.61-27.05-37.61s10.56,13.86,25.07,38.27C507.68,396.4,520.22,418.17,536.05,441.92Z"/><path class="cls-2" d="M376.39,587.07s18.47,10.56,46.84,30.35c2,.66,4,.66,5.94,1.32C396.84,597.63,375.73,587.07,376.39,587.07Z"/><path class="cls-2" d="M604,627.32c-4-6.6-8.58-11.88-13.2-15.17-1.32-4-3.3-7.92-4.62-11.22,9.9,9.9,18.47,14.52,21.77,17.81v-1.32a79.77,79.77,0,0,1,3.3,11.88c2,0,4,0,5.28-.66-3.3-11.22-7.26-22.43-11.22-33a96.31,96.31,0,0,0-7.26-18.47c-3.3-8.58-7.26-16.49-10.56-23.75,4.62,2.64,7.92,4.62,9.9,6.6-.66-5.94.66-23.09-13.2-43.55a56.28,56.28,0,0,0-24.41-19.79l-22.43-43.55S544.63,469,557.16,496a20.39,20.39,0,0,0-5.28-1.32c-17.15-25.07-31-49.48-42.23-67.3-16.49-25.73-28.37-40.25-28.37-40.25s11.22,15.17,26.39,41.57c10.56,17.81,23.75,42.23,40.25,67.3,3.3,7.92,5.94,19.79,17.15,35.63a103.1,103.1,0,0,0,15.83,17.15l5.94,13.86c-9.9-9.9-19.13-12.54-25.73-14.52a60.23,60.23,0,0,1-5.28-8.58c-11.22-23.75-23.09-44.86-33-62.68-21.77-38.27-36.29-62-36.29-62l33.65,63.34c2.64,4.62,5.28,9.9,7.92,15.17-4-6.6-7.26-12.54-10.56-17.81C500.42,447.86,487.89,432,487.89,432s11.22,16.49,27.71,44.86c9.24,16.49,20.45,38.27,34.31,60.7,5.94,13.2,11.88,27.71,17.15,42.89-1.32,3.3-2.64,6.6-4.62,11.22-15.17-25.73-27.71-50.14-38.27-68.62-3.3-5.94-6.6-11.22-9.9-16.49-13.86-28.37-29.69-52.78-42.89-72.57-22.43-34.31-36.95-56.08-36.95-56.08l34.31,56.74c14.52,24.41,34.31,56.08,48.82,92.37-3.3,9.24-8.58,25.07-1.32,48.16,9.24,29,26.39,41.57,31.67,47.5.66-6.6,5.94-23.75-.66-48.16,4,7.26,7.92,15.17,12.54,23.09-2,8.58-2.64,19.79,1.32,34.31,14.52,0,28.37-.66,42.23-1.32C604,628,604,628,604,627.32Z"/><path class="cls-2" d="M402.78,573.87c-35-22.43-57.4-33.65-57.4-33.65s21.77,12.54,56.08,35.63c19.79,13.86,43.55,31.67,71.26,49.48a53.33,53.33,0,0,0,10.56.66C451.6,606.86,424.55,587.73,402.78,573.87Z"/><path class="cls-2" d="M652.83,587.73c6.6-36.29,5.94-69.94,5.94-96.33l-1.32-62s-.66,23.75-1.32,62c-.66,26.39-1.32,60.7-7.92,97-7.26,5.94-19.13,15.17-25.73,37.61a2.42,2.42,0,0,1-.66,2c9.9-.66,19.79-2,29-3.3C654.15,607.52,652.83,595.65,652.83,587.73Z"/></svg>