<svg id="Layer_1" data-name="Layer 1" xmlns="http://www.w3.org/2000/svg" viewBox="0 0 1100 1100"><defs><style>.cls-1{fill:#56565a;}.cls-2{fill:#fff;}</style></defs><title>Artboard 1</title><circle class="cls-1" cx="550" cy="550.24" r="549.76" transform="translate(-2.11 1098.37) rotate(-89.81)"/><polygon class="cls-2" points="578.98 380.24 578.98 809.84 665.28 809.84 665.28 847.64 434.72 847.64 434.72 809.84 521.02 809.84 521.02 380.24 333.94 380.24 333.94 342.44 521.02 342.44 521.02 252.36 578.98 252.36 578.98 342.44 766.07 342.44 766.07 380.24 578.98 380.24"/><path class="cls-2" d="M333.94,380.24,235,610.79c0,31.5,44.09,57.32,98.9,57.32s98.9-25.83,98.9-57.32ZM251.42,610.16,333.94,418l82.52,192.13Z"/><path class="cls-2" d="M766.06,380.24l-98.9,230.55c0,31.5,44.09,57.32,98.9,57.32,54.17,0,98.9-25.83,98.9-57.32ZM684.17,610.16,766.69,418l82.52,192.13Z"/></svg>