<svg xmlns="http://www.w3.org/2000/svg" xmlns:xlink="http://www.w3.org/1999/xlink" version="1.1" x="0px" y="0px" viewBox="0 0 100 100" enable-background="new 0 0 100 100" xml:space="preserve">
    <g>
        <path fill="#ce5c43" d="M50,13.1L5.3,86.9h89.4L50,13.1z M55,39L53.5,67h-7L45,39H55z M50,81.8c-1.6,0-2.9-0.4-3.7-1.3c-0.9-0.9-1.3-2.1-1.3-3.6   c0-1.6,0.4-2.8,1.3-3.7c0.9-0.8,2.1-1.2,3.8-1.2c1.6,0,2.8,0.4,3.7,1.3s1.3,2.1,1.3,3.6c0,1.5-0.4,2.7-1.3,3.6   C52.8,81.3,51.6,81.8,50,81.8z">

        </path>
    </g>
</svg>