<svg id="Layer_1" data-name="Layer 1" xmlns="http://www.w3.org/2000/svg" viewBox="0 0 1100 1100"><defs><style>.cls-1{fill:#56565a;}.cls-2{fill:#fff;}</style></defs><title>Artboard 1</title><circle class="cls-1" cx="550" cy="550.24" r="549.76" transform="translate(-2.11 1098.37) rotate(-89.81)"/><path class="cls-2" d="M549.55,350.54C524.12,326.56,380.28,243,182.67,328V795.15H482c10.17,8.72,34.87,15.26,63.2,15.26s53-6.54,63.2-15.26H909.16V328C719.55,244.47,568.44,333.1,549.55,350.54ZM522.67,765.36c0-16-140.21-109.7-302.22-7.26V362.16c32-18.16,75.55-29.79,122.78-29.79,99.53,0,179.44,32.69,179.44,93Zm351.62-7.26c-162-101.71-302.22-8.72-302.22,7.26v-340c0-60.3,80.64-93,179.44-93,47.95,0,90.81,11.62,122.78,29.79Z"/></svg>